<?xml version="1.0" encoding="UTF-8" standalone="no"?>
<!-- Created with Inkscape (http://www.inkscape.org/) -->

<svg
   xmlns:dc="http://purl.org/dc/elements/1.1/"
   xmlns:cc="http://creativecommons.org/ns#"
   xmlns:rdf="http://www.w3.org/1999/02/22-rdf-syntax-ns#"
   xmlns:svg="http://www.w3.org/2000/svg"
   xmlns="http://www.w3.org/2000/svg"
   xmlns:sodipodi="http://sodipodi.sourceforge.net/DTD/sodipodi-0.dtd"
   xmlns:inkscape="http://www.inkscape.org/namespaces/inkscape"
   width="512"
   height="512"
   viewBox="0 0 512.00001 512.00001"
   id="svg2"
   version="1.1"
   inkscape:version="0.91 r13725"
   sodipodi:docname="176.1.svg">
  <defs
     id="defs4">
    <pattern
       y="0"
       x="0"
       height="6"
       width="6"
       patternUnits="userSpaceOnUse"
       id="EMFhbasepattern" />
    <pattern
       id="EMFhbasepattern-3"
       patternUnits="userSpaceOnUse"
       width="6"
       height="6"
       x="0"
       y="0" />
    <pattern
       id="EMFhbasepattern-6"
       patternUnits="userSpaceOnUse"
       width="6"
       height="6"
       x="0"
       y="0" />
    <pattern
       id="EMFhbasepattern-2"
       patternUnits="userSpaceOnUse"
       width="6"
       height="6"
       x="0"
       y="0" />
  </defs>
  <sodipodi:namedview
     id="base"
     pagecolor="#ffffff"
     bordercolor="#666666"
     borderopacity="1.0"
     inkscape:pageopacity="0.0"
     inkscape:pageshadow="2"
     inkscape:zoom="0.49497475"
     inkscape:cx="-388.0503"
     inkscape:cy="-115.99133"
     inkscape:document-units="px"
     inkscape:current-layer="layer1"
     showgrid="false"
     units="px"
     inkscape:showpageshadow="false"
     inkscape:window-width="2560"
     inkscape:window-height="1369"
     inkscape:window-x="-8"
     inkscape:window-y="-8"
     inkscape:window-maximized="1" />
  <metadata
     id="metadata7">
    <rdf:RDF>
      <cc:Work
         rdf:about="">
        <dc:format>image/svg+xml</dc:format>
        <dc:type
           rdf:resource="http://purl.org/dc/dcmitype/StillImage" />
        <dc:title></dc:title>
      </cc:Work>
    </rdf:RDF>
  </metadata>
  <g
     inkscape:label="Layer 1"
     inkscape:groupmode="layer"
     id="layer1"
     transform="translate(0,-540.36216)">
    <g
       style="fill:#ffffff"
       id="g10401"
       transform="matrix(10.239898,0,0,10.239898,19743.95,-53506.38)">
      <g
         style="fill:#ffffff"
         id="g10397">
        <path
           inkscape:connector-curvature="0"
           style="opacity:1;fill:#3a84df;fill-opacity:1"
           d="m -1922.8438,5279.2105 c -2.3126,0 -4.8901,1.7461 -5.25,4.1133 -0.018,0.1859 -0.045,0.3675 -0.045,0.5605 l 0,5.6075 50,0 0,-5.6075 c 0,-0.1877 -0.028,-0.3639 -0.045,-0.5449 -0.3509,-2.3751 -2.9342,-4.1289 -5.2519,-4.1289 l -4.6719,0 0,4.6738 c 0,0.9345 -0.7797,1.5567 -1.5586,1.5567 -0.1935,0 -0.3883,-0.039 -0.5723,-0.1113 -0.5565,-0.2184 -1.0079,-0.7434 -0.9844,-1.4454 l 0,-4.6738 -23.832,0 0,4.6738 c 0.024,0.702 -0.4298,1.227 -0.9863,1.4454 -0.091,0.036 -0.1854,0.065 -0.2813,0.084 -0.096,0.019 -0.1943,0.027 -0.291,0.027 -0.7788,0 -1.5566,-0.6222 -1.5566,-1.5567 l 0,-4.6738 -4.6739,0 z"
           id="path10370-8" />
      </g>
      <g
         style="fill:#ffffff"
         id="g10017"
         transform="translate(0,3.4140002)">
        <path
           sodipodi:nodetypes="ccccc"
           style="fill:#90a4ae;fill-opacity:1"
           inkscape:connector-curvature="0"
           d="m -1915.2404,5311.7397 3.3464,0 0,3.3463 -3.3464,0 z"
           id="path9829" />
        <path
           sodipodi:nodetypes="ccccc"
           style="fill:#90a4ae;fill-opacity:1"
           inkscape:connector-curvature="0"
           d="m -1894.3836,5311.7397 3.3463,0 0,3.3463 -3.3463,0 z"
           id="path9831" />
        <path
           sodipodi:nodetypes="ssssccssssssssssssssssssssssssssssccccsccsccc"
           id="path9839"
           d="m -1928.1393,5318.0984 c 0,2.9706 2.4168,5.3874 5.3873,5.3874 l 39.2252,0 c 2.9707,0 5.3875,-2.4168 5.3875,-5.3874 l 0,-29.1309 -50,0 z m 19.175,-1.5476 c 0,0.809 -0.6558,1.4649 -1.4648,1.4649 l -6.2762,0 c -0.809,0 -1.4648,-0.6559 -1.4648,-1.4649 l 0,-6.2759 c 0,-0.809 0.6558,-1.4649 1.4648,-1.4649 l 6.2762,0 c 0.809,0 1.4648,0.6559 1.4648,1.4649 z m 11.651,-20.578 c 0,-0.809 0.6558,-1.4648 1.4648,-1.4648 l 6.276,0 c 0.809,0 1.4649,0.6558 1.4649,1.4648 l 0,6.276 c 0,0.809 -0.6559,1.4648 -1.4649,1.4648 l -6.276,0 c -0.809,0 -1.4648,-0.6558 -1.4648,-1.4648 z m 0,14.3021 c 0,-0.809 0.6558,-1.4649 1.4648,-1.4649 l 6.276,0 c 0.809,0 1.4649,0.6559 1.4649,1.4649 l 0,6.2759 c 0,0.809 -0.6559,1.4649 -1.4649,1.4649 l -6.276,0 c -0.809,0 -1.4648,-0.6559 -1.4648,-1.4649 z m -20.6179,-12.1998 c 0.572,-0.572 1.4995,-0.572 2.0716,0 l 1.1832,1.1831 3.4019,-3.402 c 0.572,-0.572 1.4994,-0.5722 2.0716,0 0.572,0.572 0.572,1.4994 10e-5,2.0716 l -4.4376,4.4378 c -0.2747,0.2747 -0.6474,0.4291 -1.0359,0.4291 -0.3885,0 -0.761,-0.1543 -1.0357,-0.4291 l -2.2191,-2.2191 c -0.5721,-0.5719 -0.5721,-1.4995 -10e-5,-2.0714 z"
           inkscape:connector-curvature="0"
           style="fill:#90a4ae;fill-opacity:1" />
        <path
           sodipodi:nodetypes="ccccc"
           style="fill:#90a4ae;fill-opacity:1"
           inkscape:connector-curvature="0"
           d="m -1894.3836,5297.4377 3.3463,0 0,3.3462 -3.3463,0 z"
           id="path9841" />
      </g>
    </g>
  </g>
</svg>
