<?xml version="1.0" encoding="UTF-8" standalone="no"?>
<!-- Generator: Adobe Illustrator 16.0.0, SVG Export Plug-In . SVG Version: 6.00 Build 0)  -->

<svg
   xmlns:dc="http://purl.org/dc/elements/1.1/"
   xmlns:cc="http://creativecommons.org/ns#"
   xmlns:rdf="http://www.w3.org/1999/02/22-rdf-syntax-ns#"
   xmlns:svg="http://www.w3.org/2000/svg"
   xmlns="http://www.w3.org/2000/svg"
   xmlns:sodipodi="http://sodipodi.sourceforge.net/DTD/sodipodi-0.dtd"
   xmlns:inkscape="http://www.inkscape.org/namespaces/inkscape"
   version="1.1"
   id="Capa_1"
   x="0px"
   y="0px"
   width="512"
   height="512"
   viewBox="0 0 512 512"
   xml:space="preserve"
   inkscape:version="0.91 r13725"
   sodipodi:docname="رسم.svg"><metadata
     id="metadata42"><rdf:RDF><cc:Work
         rdf:about=""><dc:format>image/svg+xml</dc:format><dc:type
           rdf:resource="http://purl.org/dc/dcmitype/StillImage" /><dc:title></dc:title></cc:Work></rdf:RDF></metadata><defs
     id="defs40" /><sodipodi:namedview
     pagecolor="#ffffff"
     bordercolor="#666666"
     borderopacity="1"
     objecttolerance="10"
     gridtolerance="10"
     guidetolerance="10"
     inkscape:pageopacity="0"
     inkscape:pageshadow="2"
     inkscape:window-width="2560"
     inkscape:window-height="1377"
     id="namedview38"
     showgrid="false"
     inkscape:zoom="0.9254902"
     inkscape:cx="249.934"
     inkscape:cy="301.14671"
     inkscape:window-x="-8"
     inkscape:window-y="-8"
     inkscape:window-maximized="1"
     inkscape:current-layer="Capa_1" /><g
     id="g8"
     transform="translate(0,2)" /><g
     id="g10"
     transform="translate(0,2)" /><g
     id="g12"
     transform="translate(0,2)" /><g
     id="g14"
     transform="translate(0,2)" /><g
     id="g16"
     transform="translate(0,2)" /><g
     id="g18"
     transform="translate(0,2)" /><g
     id="g20"
     transform="translate(0,2)" /><g
     id="g22"
     transform="translate(0,2)" /><g
     id="g24"
     transform="translate(0,2)" /><g
     id="g26"
     transform="translate(0,2)" /><g
     id="g28"
     transform="translate(0,2)" /><g
     id="g30"
     transform="translate(0,2)" /><g
     id="g32"
     transform="translate(0,2)" /><g
     id="g34"
     transform="translate(0,2)" /><g
     id="g36"
     transform="translate(0,2)" /><g
     transform="matrix(20.480022,0,0,20.480022,50816.511,19407.495)"
     id="g5966"><path
       id="path6968"
       d="m -2457.3124,-942.8158 -4.6209,-4.6209 c -0.2588,-0.2585 -0.6781,-0.2585 -0.9367,0 l -11.4899,11.4898 c -0.093,0.093 -0.1558,0.2109 -0.1813,0.3394 l -1.1449,5.7657 c -0.043,0.2169 0.025,0.4411 0.1813,0.5975 0.1255,0.1254 0.2945,0.1939 0.4684,0.1939 0.043,0 0.086,0 0.1291,-0.013 l 5.7657,-1.1449 c 0.1286,-0.025 0.2467,-0.089 0.3394,-0.1813 l 11.4898,-11.4897 c 0.2586,-0.2587 0.2586,-0.678 0,-0.9368 z m -16.6141,10.9145 0.5984,-3.0138 3.4941,3.4941 -3.0138,0.5984 -1.0787,-1.0787 z"
       inkscape:connector-curvature="0"
       style="fill:#666666;fill-opacity:1" /><path
       id="path6970"
       d="m -2463.0882,-927.5784 c -6.3344,-2.6518 -10.4581,1.7338 -11.6897,2.3999 -1.5743,0.8514 -3.7921,1.8518 -4.3077,0.1199 -0.311,-1.0449 1.3707,-2.1618 2.4843,-2.5098 0.8124,-0.254 0.4655,-1.5329 -0.3522,-1.2774 -1.7293,0.5406 -3.7927,1.9972 -3.4309,4.0481 0.2688,1.5238 2.1786,2.9138 5.8609,0.9814 2.6765,-1.4043 4.4948,-4.313 10.1321,-2.8067 1.8518,0.4947 3.3488,1.7017 3.9897,3.5374 0.2798,0.801 1.5597,0.4565 1.2774,-0.3522 -0.6832,-1.9564 -2.0653,-3.3457 -3.9639,-4.1406 z"
       inkscape:connector-curvature="0"
       style="fill:#9f9f9f;fill-opacity:1" /></g></svg>