<?xml version="1.0" encoding="UTF-8" standalone="no"?>
<!-- Generator: Adobe Illustrator 16.0.0, SVG Export Plug-In . SVG Version: 6.00 Build 0)  -->

<svg
   xmlns:dc="http://purl.org/dc/elements/1.1/"
   xmlns:cc="http://creativecommons.org/ns#"
   xmlns:rdf="http://www.w3.org/1999/02/22-rdf-syntax-ns#"
   xmlns:svg="http://www.w3.org/2000/svg"
   xmlns="http://www.w3.org/2000/svg"
   xmlns:sodipodi="http://sodipodi.sourceforge.net/DTD/sodipodi-0.dtd"
   xmlns:inkscape="http://www.inkscape.org/namespaces/inkscape"
   version="1.1"
   id="Capa_1"
   x="0px"
   y="0px"
   width="512"
   height="512"
   viewBox="0 0 512 512"
   xml:space="preserve"
   inkscape:version="0.91 r13725"
   sodipodi:docname="قائمة.svg"><metadata
     id="metadata42"><rdf:RDF><cc:Work
         rdf:about=""><dc:format>image/svg+xml</dc:format><dc:type
           rdf:resource="http://purl.org/dc/dcmitype/StillImage" /><dc:title></dc:title></cc:Work></rdf:RDF></metadata><defs
     id="defs40" /><sodipodi:namedview
     pagecolor="#ffffff"
     bordercolor="#666666"
     borderopacity="1"
     objecttolerance="10"
     gridtolerance="10"
     guidetolerance="10"
     inkscape:pageopacity="0"
     inkscape:pageshadow="2"
     inkscape:window-width="2560"
     inkscape:window-height="1377"
     id="namedview38"
     showgrid="false"
     inkscape:zoom="0.3272102"
     inkscape:cx="-662.44793"
     inkscape:cy="369.33744"
     inkscape:window-x="-8"
     inkscape:window-y="-8"
     inkscape:window-maximized="1"
     inkscape:current-layer="Capa_1" /><g
     id="g8"
     transform="translate(0,2)" /><g
     id="g10"
     transform="translate(0,2)" /><g
     id="g12"
     transform="translate(0,2)" /><g
     id="g14"
     transform="translate(0,2)" /><g
     id="g16"
     transform="translate(0,2)" /><g
     id="g18"
     transform="translate(0,2)" /><g
     id="g20"
     transform="translate(0,2)" /><g
     id="g22"
     transform="translate(0,2)" /><g
     id="g24"
     transform="translate(0,2)" /><g
     id="g26"
     transform="translate(0,2)" /><g
     id="g28"
     transform="translate(0,2)" /><g
     id="g30"
     transform="translate(0,2)" /><g
     id="g32"
     transform="translate(0,2)" /><g
     id="g34"
     transform="translate(0,2)" /><g
     id="g36"
     transform="translate(0,2)" /><g
     style="fill:#cfd8dc;fill-opacity:1"
     transform="matrix(1.1810842,0,0,1.1810842,-3.4999994e-7,-21.927739)"
     id="g6293"><g
       style="fill:#cfd8dc;fill-opacity:1"
       id="g6295"><path
         style="fill:#52b44a;fill-opacity:1"
         id="path6297"
         d="m 0,267.75 102,0 0,-64.86845 -102,0 z m 0,127.5 102,0 0,-64.86845 -102,0 z m 0,-255 102,0 0,-64.868459 -102,0 z"
         inkscape:connector-curvature="0"
         sodipodi:nodetypes="ccccccccccccccc" /><path
         sodipodi:nodetypes="ccccccccccccccc"
         inkscape:connector-curvature="0"
         d="m 152.27146,267.75 281.22854,0 0,-64.86845 -281.22854,0 z m 0,127.5 281.22854,0 0,-64.86845 -281.22854,0 z m 0,-319.868459 0,64.868459 281.22854,0 0,-64.868459 z"
         id="path6299"
         style="fill:#cfd8dc;fill-opacity:1" /></g></g></svg>