<?xml version="1.0" encoding="UTF-8" standalone="no"?>
<!-- Created with Inkscape (http://www.inkscape.org/) -->

<svg
   xmlns:dc="http://purl.org/dc/elements/1.1/"
   xmlns:cc="http://creativecommons.org/ns#"
   xmlns:rdf="http://www.w3.org/1999/02/22-rdf-syntax-ns#"
   xmlns:svg="http://www.w3.org/2000/svg"
   xmlns="http://www.w3.org/2000/svg"
   xmlns:sodipodi="http://sodipodi.sourceforge.net/DTD/sodipodi-0.dtd"
   xmlns:inkscape="http://www.inkscape.org/namespaces/inkscape"
   width="512"
   height="512"
   viewBox="0 0 512.00001 512.00001"
   id="svg2"
   version="1.1"
   inkscape:version="0.91 r13725"
   sodipodi:docname="بحث 2.svg">
  <defs
     id="defs4" />
  <sodipodi:namedview
     id="base"
     pagecolor="#ffffff"
     bordercolor="#666666"
     borderopacity="1.0"
     inkscape:pageopacity="0.0"
     inkscape:pageshadow="2"
     inkscape:zoom="0.70710678"
     inkscape:cx="-176.18044"
     inkscape:cy="380.44159"
     inkscape:document-units="px"
     inkscape:current-layer="layer1"
     showgrid="false"
     showguides="false"
     inkscape:guide-bbox="true"
     inkscape:object-paths="true"
     inkscape:snap-intersection-paths="true"
     inkscape:object-nodes="true"
     inkscape:snap-smooth-nodes="true"
     units="px"
     inkscape:showpageshadow="false"
     inkscape:window-width="2560"
     inkscape:window-height="1377"
     inkscape:window-x="-8"
     inkscape:window-y="-8"
     inkscape:window-maximized="1">
    <sodipodi:guide
       position="419.34905,441.66295"
       orientation="0,1"
       id="guide4144" />
    <sodipodi:guide
       position="419.05927,441.28248"
       orientation="0.76958001,0.6385504"
       id="guide4146" />
    <sodipodi:guide
       position="443.26757,444.83647"
       orientation="1,0"
       id="guide4148" />
    <sodipodi:guide
       position="426.25,426.0625"
       orientation="1,0"
       id="guide4157" />
    <sodipodi:guide
       position="483.9375,437.43751"
       orientation="1,0"
       id="guide4159" />
    <sodipodi:guide
       position="429.93197,442.15167"
       orientation="1,0"
       id="guide4161" />
    <sodipodi:guide
       position="456.26065,443.53274"
       orientation="1,0"
       id="guide4163" />
  </sodipodi:namedview>
  <metadata
     id="metadata7">
    <rdf:RDF>
      <cc:Work
         rdf:about="">
        <dc:format>image/svg+xml</dc:format>
        <dc:type
           rdf:resource="http://purl.org/dc/dcmitype/StillImage" />
        <dc:title></dc:title>
      </cc:Work>
    </rdf:RDF>
  </metadata>
  <g
     inkscape:label="Layer 1"
     inkscape:groupmode="layer"
     id="layer1"
     transform="translate(0,-540.3621)">
    <g
       id="g9953"
       transform="matrix(-1.7098385,0,0,1.7098385,530.76657,540.36071)"
       style="fill:#367cde;fill-opacity:1">
      <g
         id="g9955"
         style="fill:#367cde;fill-opacity:1">
        <g
           id="g9957"
           style="fill:#367cde;fill-opacity:1">
          <path
             id="path9959"
             d="m 273.587,214.965 c 49.11,-49.111 49.109,-129.021 0,-178.132 -49.111,-49.111 -129.02,-49.111 -178.13,0 C 53.793,78.497 47.483,140.462 76.51,188.85 c 0,0 2.085,3.498 -0.731,6.312 -16.065,16.064 -53.28805,53.28805 -53.28805,53.28805 -12.7910002,12.79 -15.8360002,30.675 -4.493,42.02 l 1.953,1.951 c 11.343,11.345 29.229,8.301 42.019,-4.49 0,0 37.12105,-37.12205 53.15305,-53.15305 2.951,-2.951 6.448,-0.866 6.448,-0.866 48.387,29.026 110.352,22.717 152.016,-18.947 z M 118.711,191.71 C 82.423,155.422 82.424,96.378 118.712,60.09 c 36.288,-36.287 95.332,-36.288 131.619,0 36.288,36.287 36.288,95.332 0,131.62 -36.288,36.286 -95.331,36.286 -131.62,0 z"
             inkscape:connector-curvature="0"
             style="fill:#367cde;fill-opacity:1"
             sodipodi:nodetypes="ccccccccccccccccc" />
          <g
             id="g9961"
             style="fill:#367cde;fill-opacity:1">
            <path
               id="path9963"
               d="m 126.75,118.424 c -1.689,0 -3.406,-0.332 -5.061,-1.031 -6.611,-2.798 -9.704,-10.426 -6.906,-17.038 17.586,-41.559 65.703,-61.062 107.261,-43.476 6.611,2.798 9.704,10.426 6.906,17.038 -2.799,6.612 -10.425,9.703 -17.039,6.906 -28.354,-11.998 -61.186,1.309 -73.183,29.663 -2.099,4.959 -6.913,7.938 -11.978,7.938 z"
               inkscape:connector-curvature="0"
               style="opacity:0.40900005;fill:#367cde;fill-opacity:1" />
          </g>
        </g>
      </g>
      <g
         id="g9965"
         style="fill:#367cde;fill-opacity:1" />
      <g
         id="g9967"
         style="fill:#367cde;fill-opacity:1" />
      <g
         id="g9969"
         style="fill:#367cde;fill-opacity:1" />
      <g
         id="g9971"
         style="fill:#367cde;fill-opacity:1" />
      <g
         id="g9973"
         style="fill:#367cde;fill-opacity:1" />
      <g
         id="g9975"
         style="fill:#367cde;fill-opacity:1" />
      <g
         id="g9977"
         style="fill:#367cde;fill-opacity:1" />
      <g
         id="g9979"
         style="fill:#367cde;fill-opacity:1" />
      <g
         id="g9981"
         style="fill:#367cde;fill-opacity:1" />
      <g
         id="g9983"
         style="fill:#367cde;fill-opacity:1" />
      <g
         id="g9985"
         style="fill:#367cde;fill-opacity:1" />
      <g
         id="g9987"
         style="fill:#367cde;fill-opacity:1" />
      <g
         id="g9989"
         style="fill:#367cde;fill-opacity:1" />
      <g
         id="g9991"
         style="fill:#367cde;fill-opacity:1" />
      <g
         id="g9993"
         style="fill:#367cde;fill-opacity:1" />
    </g>
  </g>
</svg>
